<?xml version="1.0" encoding="UTF-8" standalone="no"?>
<svg
   xmlns:dc="http://purl.org/dc/elements/1.1/"
   xmlns:cc="http://creativecommons.org/ns#"
   xmlns:rdf="http://www.w3.org/1999/02/22-rdf-syntax-ns#"
   xmlns:svg="http://www.w3.org/2000/svg"
   xmlns="http://www.w3.org/2000/svg"
   xmlns:sodipodi="http://sodipodi.sourceforge.net/DTD/sodipodi-0.dtd"
   xmlns:inkscape="http://www.inkscape.org/namespaces/inkscape"
   enable-background="new 0 0 711.071 705.07"
   height="16"
   id="Layer_1"
   version="1.1"
   viewBox="0 0 15 15"
   width="16"
   xml:space="preserve"
   inkscape:version="0.92.2 (5c3e80d, 2017-08-06)"
   sodipodi:docname="icon.svg"
   inkscape:export-xdpi="60"
   inkscape:export-ydpi="60"><metadata
     id="metadata13"><rdf:RDF><cc:Work
         rdf:about=""><dc:format>image/svg+xml</dc:format><dc:type
           rdf:resource="http://purl.org/dc/dcmitype/StillImage" /><dc:title></dc:title></cc:Work></rdf:RDF></metadata><defs
     id="defs11" /><sodipodi:namedview
     pagecolor="#ffffff"
     bordercolor="#666666"
     borderopacity="1"
     objecttolerance="10"
     gridtolerance="10"
     guidetolerance="10"
     inkscape:pageopacity="0"
     inkscape:pageshadow="2"
     inkscape:window-width="1920"
     inkscape:window-height="1017"
     id="namedview9"
     showgrid="true"
     inkscape:zoom="30.295263"
     inkscape:cx="0.41031537"
     inkscape:cy="4.4866284"
     inkscape:window-x="-8"
     inkscape:window-y="-8"
     inkscape:window-maximized="1"
     inkscape:current-layer="dev"
     inkscape:lockguides="true"><inkscape:grid
       type="xygrid"
       id="grid4566" /></sodipodi:namedview><path
     inkscape:connector-curvature="0"
     id="globe"
     d="M 7.5115943,5.104094e-8 C 3.3513307,5.104094e-8 0,3.3332104 0,7.4767688 0,10.611964 1.8763863,13.267541 4.5642079,14.405815 A 1.2441151,1.2460417 0 0 1 3.9996325,13.095807 L 4.1064443,12.574982 C 3.7761095,12.358572 3.4657079,12.104856 3.1896964,11.80536 2.5194385,11.180402 2.0801251,10.416548 1.733398,9.5600675 2.0811867,9.7487305 2.5455656,9.9169981 3.0657951,10.069277 L 1.9116205,9.027628 A 1.1995186,1.2013761 0 0 1 1.5612789,8.4621785 C 1.5119879,8.4179995 1.4689544,8.3746295 1.4331051,8.3331952 1.3868804,8.0785656 1.3867184,7.777694 1.3867184,7.4767688 c 0,-0.6018516 0.09273,-1.2269857 0.2545165,-1.7825412 0.3325251,0.142715 0.7418565,0.2646327 1.3012692,0.3936752 L 3.5803212,5.3794102 C 2.5756991,5.1179484 2.1715918,5.0477442 1.9879145,4.8842599 2.2653046,4.2824079 2.6580706,3.6807469 3.1896964,3.1946361 3.2522004,3.1273941 3.3155974,3.0658047 3.3795159,3.0051342 A 1.1995186,1.2013761 0 0 1 4.1876209,2.0796306 L 6.7498761,1.2470453 9.311521,0.41568169 a 1.1995186,1.2013761 0 0 1 0.3466796,-0.0586845 1.1995186,1.2013761 0 0 1 0.2105713,0.015894 C 9.1294679,0.13205934 8.3382003,8.3326142e-6 7.5115943,5.104094e-8 Z M 10.287473,0.52326993 a 1.1995186,1.2013761 0 0 1 0.567016,1.28555687 l -0.106811,0.5018746 c 0.974584,0.6077015 1.780886,1.5243773 2.264404,2.5967874 -0.103743,0.077945 -0.329307,0.1788097 -0.71045,0.2922004 l 0.662232,0.5899007 a 1.2441151,1.2460417 0 0 1 0.05432,0.051349 c 0.116091,-0.042943 0.228784,-0.085862 0.317993,-0.1234816 0.184941,0.5555551 0.2771,1.1806081 0.2771,1.7593117 0,0.9408304 -0.108008,1.4865562 -2.147217,1.8760691 l -0.811767,0.9151109 0.261231,0.232293 c 0.01255,-0.05242 0.02746,-0.09945 0.03967,-0.152825 0.855114,-0.185185 1.640899,-0.4166543 2.24182,-0.6944323 -0.300502,0.8101843 -0.739615,1.5505233 -1.386718,2.1523753 -0.105186,0.114128 -0.217555,0.219627 -0.333253,0.320931 a 1.2441151,1.2460417 0 0 1 -0.754394,0.702379 l -2.5561515,0.850925 a 1.2441151,1.2460417 0 0 0 -6.294e-4,0 l -2.5561517,0.849703 a 1.2441151,1.2460417 0 0 1 -0.6060793,0.04462 c 0.7839827,0.275181 1.6273947,0.426073 2.5079486,0.426073 C 11.694933,14.999995 15,11.666581 15,7.4767688 c 0,-3.168 -1.933142,-5.8603597 -4.712523,-6.95349887 z m 0.241699,2.81379797 -0.236206,1.1095036 -0.04944,0.2329037 A 1.2441151,1.2460417 0 0 1 10.865475,4.44596 C 10.770748,4.0549843 10.659616,3.6832483 10.529172,3.3370679 Z M 4.1210927,4.44596 C 4.0834947,4.5931988 4.0484458,4.7430525 4.0155017,4.8964859 L 4.2864976,4.5951164 Z m 0.4895019,5.675889 a 1.1995186,1.2013761 0 0 1 -0.5560301,0.243296 c 0.080063,0.378619 0.175148,0.736931 0.2850339,1.075882 l 0.2026372,-0.987244 z"
     style="fill:#0c0c0d;fill-opacity:0.8;stroke-width:0.99999988"
     inkscape:label="globe" /><path
     inkscape:connector-curvature="0"
     id="arrow-up"
     d="M 4.5574153,3.2219034 5.9805113,4.5068299 2.7148674,8.1348409 3.8699828,9.1778063 7.1356271,5.5497957 8.5584484,6.8344746 9.1200955,4.1961126 9.681494,1.558026 7.1195788,2.3898276 Z"
     style="fill:#0c0c0d;fill-opacity:0.8;stroke:none;stroke-width:1.01499975;stroke-miterlimit:4;stroke-dasharray:none;stroke-opacity:1"
     inkscape:label="arrow-up" /><path
     style="fill:#0c0c0d;fill-opacity:0.8;stroke:none;stroke-width:1.01499975;stroke-miterlimit:4;stroke-dasharray:none;stroke-opacity:1"
     d="M 10.330048,11.646606 8.8977925,10.371929 12.137388,6.7205676 10.974838,5.6859209 7.7352422,9.3372826 6.3032637,8.0628502 5.7605126,10.705177 5.218008,13.347226 7.7739049,12.497055 Z"
     id="arrow-down"
     inkscape:connector-curvature="0"
     inkscape:label="arrow-down" /><g
     id="dev"
     inkscape:label="dev"
     style="display:inline"><rect
       inkscape:label="dev-area"
       y="9.375"
       x="3.75"
       height="3.7500002"
       width="9.375"
       id="dev-area"
       style="fill:#ff0039;fill-opacity:1;stroke:#ff0039;stroke-width:1.87499988;stroke-linecap:butt;stroke-linejoin:round;stroke-miterlimit:4;stroke-dasharray:none;stroke-opacity:1;paint-order:normal" /><text
       inkscape:label="dev-label"
       id="dev-label"
       y="13.088013"
       x="3.133667"
       style="font-style:normal;font-weight:normal;font-size:5.25px;line-height:23.4375px;font-family:sans-serif;letter-spacing:0px;word-spacing:0px;fill:#0c0c0d;fill-opacity:1;stroke:none;stroke-width:0.9375px;stroke-linecap:butt;stroke-linejoin:miter;stroke-opacity:1"
       xml:space="preserve"><tspan
         style="font-style:normal;font-variant:normal;font-weight:bold;font-stretch:normal;font-size:5.25px;font-family:'Segoe UI';-inkscape-font-specification:'Segoe UI Bold';fill:#0c0c0d;fill-opacity:1;stroke-width:0.9375px"
         y="13.088013"
         x="3.133667"
         id="tspan4570"
         sodipodi:role="line">DEV</tspan></text>
</g></svg>