<?xml version="1.0" encoding="UTF-8" standalone="no"?>
<svg
   xmlns:dc="http://purl.org/dc/elements/1.1/"
   xmlns:cc="http://creativecommons.org/ns#"
   xmlns:rdf="http://www.w3.org/1999/02/22-rdf-syntax-ns#"
   xmlns:svg="http://www.w3.org/2000/svg"
   xmlns="http://www.w3.org/2000/svg"
   xmlns:sodipodi="http://sodipodi.sourceforge.net/DTD/sodipodi-0.dtd"
   xmlns:inkscape="http://www.inkscape.org/namespaces/inkscape"
   enable-background="new 0 0 711.071 705.07"
   height="48"
   id="Layer_1"
   version="1.1"
   viewBox="0 0 48.000001 48"
   width="48"
   xml:space="preserve"
   inkscape:version="0.91 r13725"
   sodipodi:docname="icon.svg"
   inkscape:export-filename="E:\git\RESTer\src\images\icon32.png"
   inkscape:export-xdpi="60"
   inkscape:export-ydpi="60"><metadata
     id="metadata13"><rdf:RDF><cc:Work
         rdf:about=""><dc:format>image/svg+xml</dc:format><dc:type
           rdf:resource="http://purl.org/dc/dcmitype/StillImage" /><dc:title /></cc:Work></rdf:RDF></metadata><defs
     id="defs11" /><sodipodi:namedview
     pagecolor="#ffffff"
     bordercolor="#666666"
     borderopacity="1"
     objecttolerance="10"
     gridtolerance="10"
     guidetolerance="10"
     inkscape:pageopacity="0"
     inkscape:pageshadow="2"
     inkscape:window-width="1920"
     inkscape:window-height="1017"
     id="namedview9"
     showgrid="false"
     inkscape:zoom="7.5738158"
     inkscape:cx="50.336401"
     inkscape:cy="21.014567"
     inkscape:window-x="-8"
     inkscape:window-y="-8"
     inkscape:window-maximized="1"
     inkscape:current-layer="Layer_1" /><g
     id="g4232"
     style="fill:#4c4c4c;fill-opacity:1"
     transform="matrix(0.13422781,0,0,0.13422781,-23.392015,-23.283021)"
     inkscape:export-filename="E:\git\RESTer\src\images\icon48.png"
     inkscape:export-xdpi="90"
     inkscape:export-ydpi="90"><path
       style="fill:#4c4c4c;fill-opacity:1"
       d="M 24.037109 0.07421875 C 10.724261 0.07421875 2.3684758e-015 10.724002 0 23.962891 C 5.316922e-015 33.980007 6.0044378 42.464714 14.605469 46.101562 A 3.9811694 3.9811694 0 0 1 12.798828 41.916016 L 13.140625 40.251953 C 12.083553 39.560513 11.090268 38.749875 10.207031 37.792969 C 8.0622053 35.796196 6.6564021 33.355643 5.546875 30.619141 C 6.6597991 31.221929 8.145812 31.759553 9.8105469 32.246094 L 6.1171875 28.917969 A 3.8384604 3.8384604 0 0 1 4.9960938 27.111328 C 4.8383624 26.970174 4.7006552 26.831604 4.5859375 26.699219 C 4.4380185 25.885664 4.4375 24.924364 4.4375 23.962891 C 4.4375 22.039943 4.7342365 20.042607 5.2519531 18.267578 C 6.3160337 18.72356 7.6258944 19.113094 9.4160156 19.525391 L 11.457031 17.261719 C 8.2422393 16.426335 6.9490954 16.202029 6.3613281 15.679688 C 7.2489766 13.756739 8.5058282 11.8344 10.207031 10.28125 C 10.407044 10.066408 10.609914 9.8696271 10.814453 9.6757812 A 3.8384604 3.8384604 0 0 1 13.400391 6.71875 L 21.599609 4.0585938 L 29.796875 1.4023438 A 3.8384604 3.8384604 0 0 1 30.90625 1.2148438 A 3.8384604 3.8384604 0 0 1 31.580078 1.265625 C 29.214305 0.49615568 26.682248 0.074245273 24.037109 0.07421875 z M 32.919922 1.7460938 A 3.8384604 3.8384604 0 0 1 34.734375 5.8535156 L 34.392578 7.4570312 C 37.511246 9.3986702 40.091417 12.327498 41.638672 15.753906 C 41.306695 16.002945 40.58489 16.325212 39.365234 16.6875 L 41.484375 18.572266 A 3.9811694 3.9811694 0 0 1 41.658203 18.736328 C 42.029695 18.599122 42.390312 18.461994 42.675781 18.341797 C 43.267592 20.116825 43.5625 22.113903 43.5625 23.962891 C 43.5625 26.968894 43.216876 28.712517 36.691406 29.957031 L 34.09375 32.880859 L 34.929688 33.623047 C 34.969849 33.455547 35.017556 33.305312 35.056641 33.134766 C 37.793009 32.543089 40.307521 31.80353 42.230469 30.916016 C 41.268861 33.504599 39.863701 35.870021 37.792969 37.792969 C 37.456374 38.157613 37.096793 38.49469 36.726562 38.818359 A 3.9811694 3.9811694 0 0 1 34.3125 41.0625 L 26.132812 43.78125 A 3.9811694 3.9811694 0 0 0 26.130859 43.78125 L 17.951172 46.496094 A 3.9811694 3.9811694 0 0 1 16.011719 46.638672 C 18.520416 47.517891 21.219336 48 24.037109 48 C 37.423783 48 48 37.349564 48 23.962891 C 48 13.840964 41.813944 5.2387318 32.919922 1.7460938 z M 33.693359 10.736328 L 32.9375 14.28125 L 32.779297 15.025391 A 3.9811694 3.9811694 0 0 1 34.769531 14.279297 C 34.466402 13.030109 34.110779 11.842392 33.693359 10.736328 z M 13.1875 14.279297 C 13.067186 14.749732 12.95503 15.228522 12.849609 15.71875 L 13.716797 14.755859 L 13.1875 14.279297 z M 14.753906 32.414062 A 3.8384604 3.8384604 0 0 1 12.974609 33.191406 C 13.230812 34.401113 13.535084 35.545938 13.886719 36.628906 L 14.535156 33.474609 L 14.753906 32.414062 z "
       transform="matrix(7.450021,0,0,7.450021,174.271,173.45899)"
       id="path4234" /></g><path
     inkscape:connector-curvature="0"
     id="path4245"
     d="m 14.583733,10.36837 4.553908,4.10541 -10.4500631,11.591686 3.6963711,3.33233 10.450064,-11.591687 4.553029,4.104618 1.797271,-8.429707 1.796477,-8.4288264 -8.198132,2.65765 -8.198925,2.6585264 z"
     style="fill:#4c4c4c;fill-opacity:1;stroke:none;stroke-width:1.01499999;stroke-miterlimit:4;stroke-dasharray:none;stroke-opacity:1"
     inkscape:export-filename="E:\git\RESTer\src\images\icon48.png"
     inkscape:export-xdpi="90"
     inkscape:export-ydpi="90" /><g
     transform="matrix(0.11185651,0,0,0.11185651,47.222727,-14.74235)"
     style="fill:#797c80;fill-opacity:1"
     id="g4201"><path
       inkscape:connector-curvature="0"
       style="fill:#797c80;fill-opacity:1"
       id="path4203"
       d="m 531.872,351.984 c 0,99.731 -78.794,179.076 -178.525,179.076 -99.181,0 -179.076,-79.345 -179.076,-179.076 0,-98.63 79.895,-177.975 179.076,-177.975 99.731,0.001 178.525,79.345 178.525,177.975 z m -265.034,45.734 c -2.204,-13.775 -3.305,-29.204 -3.305,-44.08 0,-11.021 0.55,-19.837 1.653,-30.307 -25.346,-4.958 -40.224,-8.815 -51.794,-13.773 -3.857,13.224 -6.061,28.101 -6.061,42.427 0,7.163 0,14.326 1.102,20.387 7.162,8.265 25.346,19.284 58.405,25.346 z m 30.306,88.711 c -12.673,-17.632 -20.938,-40.223 -26.448,-66.671 -22.04,-4.96 -41.876,-11.021 -55.101,-18.184 8.266,20.387 18.735,38.571 34.714,53.447 13.224,14.327 29.754,24.245 46.835,31.408 z M 221.656,290.272 c 4.959,4.407 13.224,4.958 45.733,13.774 6.061,-35.264 16.53,-64.468 33.061,-86.508 -18.734,8.815 -35.264,16.53 -50.141,32.51 -12.674,11.571 -22.04,25.898 -28.653,40.224 z m 65.019,111.302 c 18.734,3.307 36.917,4.96 55.651,5.511 l 0,-77.692 c -19.836,-0.55 -39.672,-1.652 -58.406,-3.856 0,9.917 -0.551,18.183 -0.551,28.102 0,15.977 1.102,33.058 3.306,47.935 z m 0,-94.772 c 18.184,1.653 36.917,2.756 55.651,3.306 l 0,-102.487 c 0,0 -0.551,0 -1.102,0 -24.795,9.918 -45.733,48.488 -54.549,99.181 z m 55.651,190.647 0,-71.079 c -17.081,-0.551 -34.162,-1.653 -50.692,-3.307 3.306,14.326 8.265,26.999 14.877,38.57 8.265,19.837 20.938,35.816 35.815,35.816 z m 20.939,-289.828 0,102.486 c 19.285,-0.55 37.468,-1.652 56.202,-3.306 -7.163,-39.672 -23.142,-74.386 -41.876,-91.467 -4.96,-3.305 -10.469,-7.713 -14.326,-7.713 z m 55.65,194.504 c 2.756,-14.876 3.307,-31.958 3.307,-48.487 0,-9.919 0,-18.185 -0.551,-27.551 -18.734,1.653 -38.02,2.756 -58.406,3.306 l 0,77.692 c 19.285,-0.551 37.467,-2.204 55.65,-4.96 z m -4.407,20.938 c -17.081,1.653 -34.162,2.756 -51.243,3.307 l 0,71.079 c 28.652,0 44.08,-49.591 51.243,-74.386 z m -8.817,-206.075 c 16.53,21.488 27,51.795 32.509,87.609 29.756,-5.51 41.877,-10.469 46.284,-13.775 -15.426,-34.161 -44.63,-61.712 -78.793,-73.834 z m 83.203,186.79 c -14.326,6.612 -33.061,12.122 -53.447,16.53 -6.061,26.447 -13.775,47.938 -27,66.12 17.081,-7.163 34.163,-17.081 47.387,-31.407 15.427,-14.326 25.896,-31.958 33.06,-51.243 z m -46.835,-50.14 c 0,14.876 -1.103,30.855 -2.756,44.631 57.306,-9.366 59.509,-22.592 59.509,-46.284 0,-13.775 -2.203,-28.653 -6.612,-41.877 -10.469,4.408 -29.202,11.021 -51.243,13.224 1.102,10.469 1.102,19.285 1.102,30.306 z" /></g><text
     xml:space="preserve"
     style="font-style:normal;font-weight:normal;font-size:2.10938907px;line-height:125%;font-family:sans-serif;letter-spacing:0px;word-spacing:0px;fill:#000000;fill-opacity:1;stroke:none;stroke-width:1px;stroke-linecap:butt;stroke-linejoin:miter;stroke-opacity:1"
     x="69.722511"
     y="-11.297685"
     id="text4218"
     sodipodi:linespacing="125%"><tspan
       sodipodi:role="line"
       id="tspan4220"
       x="69.722511"
       y="-11.297685">Color 16: 4c4c4c</tspan><tspan
       sodipodi:role="line"
       x="69.722511"
       y="-8.6609478"
       id="tspan4222">Color 32: 797c80</tspan></text>
<path
     style="fill:#4c4c4c;fill-opacity:1;stroke:none;stroke-width:1.01499999;stroke-miterlimit:4;stroke-dasharray:none;stroke-opacity:1"
     d="m 33.056161,37.285743 -4.583217,-4.072663 10.366708,-11.666292 -3.720161,-3.305749 -10.36671,11.666292 -4.582332,-4.071878 -1.736804,8.442373 -1.736015,8.441487 8.178872,-2.716342 8.179659,-2.717228 z"
     id="path4249"
     inkscape:connector-curvature="0"
     inkscape:export-filename="E:\git\RESTer\src\images\icon48.png"
     inkscape:export-xdpi="90"
     inkscape:export-ydpi="90" /></svg>