<?xml version="1.0" encoding="UTF-8" standalone="no"?>
<svg
   xmlns:dc="http://purl.org/dc/elements/1.1/"
   xmlns:cc="http://creativecommons.org/ns#"
   xmlns:rdf="http://www.w3.org/1999/02/22-rdf-syntax-ns#"
   xmlns:svg="http://www.w3.org/2000/svg"
   xmlns="http://www.w3.org/2000/svg"
   xmlns:sodipodi="http://sodipodi.sourceforge.net/DTD/sodipodi-0.dtd"
   xmlns:inkscape="http://www.inkscape.org/namespaces/inkscape"
   enable-background="new 0 0 711.071 705.07"
   height="51.200001"
   id="Layer_1"
   version="1.1"
   viewBox="0 0 48.000001 48"
   width="51.200001"
   xml:space="preserve"
   inkscape:version="0.92.2 (5c3e80d, 2017-08-06)"
   sodipodi:docname="raw-globe.svg"
   inkscape:export-xdpi="60"
   inkscape:export-ydpi="60"><metadata
     id="metadata13"><rdf:RDF><cc:Work
         rdf:about=""><dc:format>image/svg+xml</dc:format><dc:type
           rdf:resource="http://purl.org/dc/dcmitype/StillImage" /><dc:title /></cc:Work></rdf:RDF></metadata><defs
     id="defs11" /><sodipodi:namedview
     pagecolor="#ffffff"
     bordercolor="#666666"
     borderopacity="1"
     objecttolerance="10"
     gridtolerance="10"
     guidetolerance="10"
     inkscape:pageopacity="0"
     inkscape:pageshadow="2"
     inkscape:window-width="1920"
     inkscape:window-height="1017"
     id="namedview9"
     showgrid="false"
     inkscape:zoom="7.5738158"
     inkscape:cx="30.597342"
     inkscape:cy="15.733213"
     inkscape:window-x="-8"
     inkscape:window-y="-8"
     inkscape:window-maximized="1"
     inkscape:current-layer="Layer_1" /><g
     transform="matrix(0.11185651,0,0,0.11185651,-15.493346,-15.433279)"
     style="fill:#797c80;fill-opacity:1"
     id="g4201"><path
       inkscape:connector-curvature="0"
       style="fill:#797c80;fill-opacity:1"
       id="path4203"
       d="m 531.872,351.984 c 0,99.731 -78.794,179.076 -178.525,179.076 -99.181,0 -179.076,-79.345 -179.076,-179.076 0,-98.63 79.895,-177.975 179.076,-177.975 99.731,0.001 178.525,79.345 178.525,177.975 z m -265.034,45.734 c -2.204,-13.775 -3.305,-29.204 -3.305,-44.08 0,-11.021 0.55,-19.837 1.653,-30.307 -25.346,-4.958 -40.224,-8.815 -51.794,-13.773 -3.857,13.224 -6.061,28.101 -6.061,42.427 0,7.163 0,14.326 1.102,20.387 7.162,8.265 25.346,19.284 58.405,25.346 z m 30.306,88.711 c -12.673,-17.632 -20.938,-40.223 -26.448,-66.671 -22.04,-4.96 -41.876,-11.021 -55.101,-18.184 8.266,20.387 18.735,38.571 34.714,53.447 13.224,14.327 29.754,24.245 46.835,31.408 z M 221.656,290.272 c 4.959,4.407 13.224,4.958 45.733,13.774 6.061,-35.264 16.53,-64.468 33.061,-86.508 -18.734,8.815 -35.264,16.53 -50.141,32.51 -12.674,11.571 -22.04,25.898 -28.653,40.224 z m 65.019,111.302 c 18.734,3.307 36.917,4.96 55.651,5.511 v -77.692 c -19.836,-0.55 -39.672,-1.652 -58.406,-3.856 0,9.917 -0.551,18.183 -0.551,28.102 0,15.977 1.102,33.058 3.306,47.935 z m 0,-94.772 c 18.184,1.653 36.917,2.756 55.651,3.306 V 207.621 c 0,0 -0.551,0 -1.102,0 -24.795,9.918 -45.733,48.488 -54.549,99.181 z m 55.651,190.647 V 426.37 c -17.081,-0.551 -34.162,-1.653 -50.692,-3.307 3.306,14.326 8.265,26.999 14.877,38.57 8.265,19.837 20.938,35.816 35.815,35.816 z m 20.939,-289.828 v 102.486 c 19.285,-0.55 37.468,-1.652 56.202,-3.306 -7.163,-39.672 -23.142,-74.386 -41.876,-91.467 -4.96,-3.305 -10.469,-7.713 -14.326,-7.713 z m 55.65,194.504 c 2.756,-14.876 3.307,-31.958 3.307,-48.487 0,-9.919 0,-18.185 -0.551,-27.551 -18.734,1.653 -38.02,2.756 -58.406,3.306 v 77.692 c 19.285,-0.551 37.467,-2.204 55.65,-4.96 z m -4.407,20.938 c -17.081,1.653 -34.162,2.756 -51.243,3.307 v 71.079 c 28.652,0 44.08,-49.591 51.243,-74.386 z m -8.817,-206.075 c 16.53,21.488 27,51.795 32.509,87.609 29.756,-5.51 41.877,-10.469 46.284,-13.775 -15.426,-34.161 -44.63,-61.712 -78.793,-73.834 z m 83.203,186.79 c -14.326,6.612 -33.061,12.122 -53.447,16.53 -6.061,26.447 -13.775,47.938 -27,66.12 17.081,-7.163 34.163,-17.081 47.387,-31.407 15.427,-14.326 25.896,-31.958 33.06,-51.243 z m -46.835,-50.14 c 0,14.876 -1.103,30.855 -2.756,44.631 57.306,-9.366 59.509,-22.592 59.509,-46.284 0,-13.775 -2.203,-28.653 -6.612,-41.877 -10.469,4.408 -29.202,11.021 -51.243,13.224 1.102,10.469 1.102,19.285 1.102,30.306 z" /></g></svg>