<?xml version="1.0" encoding="UTF-8" standalone="no"?>
<svg xmlns:rdf="http://www.w3.org/1999/02/22-rdf-syntax-ns#" xmlns="http://www.w3.org/2000/svg" version="1.1" xml:space="preserve" height="48" viewBox="0 0 48.000001 48" width="48" enable-background="new 0 0 711.071 705.07" xmlns:cc="http://creativecommons.org/ns#" xmlns:dc="http://purl.org/dc/elements/1.1/"><g fill="#4c4c4c"><g transform="matrix(.13423 0 0 .13423 -23.392 -23.283)"><path d="m24.037 0.074219c-13.313 0-24.037 10.65-24.037 23.889 5.3169e-15 10.017 6.0044 18.502 14.605 22.139a3.9812 3.9812 0 0 1 -1.806 -4.186l0.342-1.664c-1.057-0.691-2.051-1.502-2.934-2.459-2.1448-1.997-3.5506-4.437-4.6601-7.174 1.1129 0.603 2.5989 1.141 4.2636 1.627l-3.6933-3.328a3.8385 3.8385 0 0 1 -1.1211 -1.807c-0.1577-0.141-0.2954-0.279-0.4102-0.412-0.1479-0.813-0.1484-1.775-0.1484-2.736 0-1.923 0.2967-3.92 0.8145-5.695 1.064 0.456 2.3739 0.845 4.164 1.257l2.041-2.263c-3.2148-0.836-4.5079-1.06-5.0957-1.582 0.8877-1.923 2.1445-3.846 3.8457-5.399 0.2-0.215 0.403-0.4114 0.607-0.6052a3.8385 3.8385 0 0 1 2.586 -2.957l8.2-2.6602 8.197-2.6563a3.8385 3.8385 0 0 1 1.109 -0.1875 3.8385 3.8385 0 0 1 0.674 0.0508c-2.366-0.76944-4.898-1.1914-7.543-1.1914zm8.883 1.6719a3.8385 3.8385 0 0 1 1.814 4.1074l-0.341 1.6035c3.118 1.9417 5.698 4.87 7.246 8.297-0.332 0.249-1.054 0.571-2.274 0.934l2.119 1.884a3.9812 3.9812 0 0 1 0.174 0.164c0.372-0.137 0.732-0.274 1.018-0.394 0.592 1.775 0.886 3.772 0.886 5.621 0 3.006-0.345 4.75-6.871 5.994l-2.597 2.924 0.836 0.742c0.04-0.167 0.088-0.318 0.127-0.488 2.736-0.592 5.251-1.331 7.173-2.219-0.961 2.589-2.366 4.954-4.437 6.877-0.337 0.365-0.696 0.702-1.066 1.025a3.9812 3.9812 0 0 1 -2.415 2.244l-8.179 2.719a3.9812 3.9812 0 0 0 -0.002 0l-8.18 2.715a3.9812 3.9812 0 0 1 -1.939 0.143c2.508 0.879 5.207 1.361 8.025 1.361 13.387 0 23.963-10.65 23.963-24.037 0-10.122-6.186-18.724-15.08-22.217zm0.773 8.9899l-0.755 3.545-0.159 0.744a3.9812 3.9812 0 0 1 1.991 -0.746c-0.304-1.249-0.659-2.437-1.077-3.543zm-20.505 3.543c-0.121 0.471-0.233 0.95-0.338 1.44l0.867-0.963-0.529-0.477zm1.566 18.135a3.8385 3.8385 0 0 1 -1.779 0.777c0.256 1.21 0.56 2.355 0.912 3.438l0.648-3.154 0.219-1.061z" transform="matrix(7.45 0 0 7.45 174.27 173.46)" fill="#4c4c4c"/></g><path d="m14.584 10.368 4.5539 4.1054-10.45 11.592 3.6964 3.3323 10.45-11.592 4.553 4.1046 1.7973-8.4297 1.7965-8.4288-8.1981 2.6576-8.1989 2.6585z"/><path d="m33.056 37.286-4.5832-4.0727 10.367-11.666-3.7202-3.3057-10.367 11.666-4.5823-4.0719-1.7368 8.4424-1.736 8.4415 8.1789-2.7163 8.1797-2.7172z"/></g></svg>
