<?xml version="1.0" encoding="UTF-8" standalone="no"?>
<svg
   xmlns:dc="http://purl.org/dc/elements/1.1/"
   xmlns:cc="http://creativecommons.org/ns#"
   xmlns:rdf="http://www.w3.org/1999/02/22-rdf-syntax-ns#"
   xmlns:svg="http://www.w3.org/2000/svg"
   xmlns="http://www.w3.org/2000/svg"
   xmlns:sodipodi="http://sodipodi.sourceforge.net/DTD/sodipodi-0.dtd"
   xmlns:inkscape="http://www.inkscape.org/namespaces/inkscape"
   enable-background="new 0 0 711.071 705.07"
   height="48"
   id="Layer_1"
   version="1.1"
   viewBox="0 0 48.000001 48"
   width="48"
   xml:space="preserve"
   inkscape:version="0.91 r13725"
   sodipodi:docname="icon.svg"
   inkscape:export-filename="E:\git\RESTer\data\images\icon64.png"
   inkscape:export-xdpi="120"
   inkscape:export-ydpi="120"><metadata
     id="metadata13"><rdf:RDF><cc:Work
         rdf:about=""><dc:format>image/svg+xml</dc:format><dc:type
           rdf:resource="http://purl.org/dc/dcmitype/StillImage" /><dc:title></dc:title></cc:Work></rdf:RDF></metadata><defs
     id="defs11" /><sodipodi:namedview
     pagecolor="#ffffff"
     bordercolor="#666666"
     borderopacity="1"
     objecttolerance="10"
     gridtolerance="10"
     guidetolerance="10"
     inkscape:pageopacity="0"
     inkscape:pageshadow="2"
     inkscape:window-width="1920"
     inkscape:window-height="1017"
     id="namedview9"
     showgrid="false"
     inkscape:zoom="7.5738158"
     inkscape:cx="34.429007"
     inkscape:cy="21.014567"
     inkscape:window-x="-8"
     inkscape:window-y="-8"
     inkscape:window-maximized="1"
     inkscape:current-layer="Layer_1" /><g
     id="g4232"
     style="fill:#4c4c4c;fill-opacity:1"
     transform="matrix(0.13422781,0,0,0.13422781,-23.392015,-23.283021)"><path
       style="fill:#4c4c4c;fill-opacity:1"
       d="M 24.037109 0.07421875 C 10.724261 0.07421875 2.3684758e-015 10.724002 0 23.962891 C 5.316922e-015 33.980007 6.0044378 42.464714 14.605469 46.101562 A 3.9811694 3.9811694 0 0 1 12.798828 41.916016 L 13.140625 40.251953 C 12.083553 39.560513 11.090268 38.749875 10.207031 37.792969 C 8.0622053 35.796196 6.6564021 33.355643 5.546875 30.619141 C 6.6597991 31.221929 8.145812 31.759553 9.8105469 32.246094 L 6.1171875 28.917969 A 3.8384604 3.8384604 0 0 1 4.9960938 27.111328 C 4.8383624 26.970174 4.7006552 26.831604 4.5859375 26.699219 C 4.4380185 25.885664 4.4375 24.924364 4.4375 23.962891 C 4.4375 22.039943 4.7342365 20.042607 5.2519531 18.267578 C 6.3160337 18.72356 7.6258944 19.113094 9.4160156 19.525391 L 11.457031 17.261719 C 8.2422393 16.426335 6.9490954 16.202029 6.3613281 15.679688 C 7.2489766 13.756739 8.5058282 11.8344 10.207031 10.28125 C 10.407044 10.066408 10.609914 9.8696271 10.814453 9.6757812 A 3.8384604 3.8384604 0 0 1 13.400391 6.71875 L 21.599609 4.0585938 L 29.796875 1.4023438 A 3.8384604 3.8384604 0 0 1 30.90625 1.2148438 A 3.8384604 3.8384604 0 0 1 31.580078 1.265625 C 29.214305 0.49615568 26.682248 0.074245273 24.037109 0.07421875 z M 32.919922 1.7460938 A 3.8384604 3.8384604 0 0 1 34.734375 5.8535156 L 34.392578 7.4570312 C 37.511246 9.3986702 40.091417 12.327498 41.638672 15.753906 C 41.306695 16.002945 40.58489 16.325212 39.365234 16.6875 L 41.484375 18.572266 A 3.9811694 3.9811694 0 0 1 41.658203 18.736328 C 42.029695 18.599122 42.390312 18.461994 42.675781 18.341797 C 43.267592 20.116825 43.5625 22.113903 43.5625 23.962891 C 43.5625 26.968894 43.216876 28.712517 36.691406 29.957031 L 34.09375 32.880859 L 34.929688 33.623047 C 34.969849 33.455547 35.017556 33.305312 35.056641 33.134766 C 37.793009 32.543089 40.307521 31.80353 42.230469 30.916016 C 41.268861 33.504599 39.863701 35.870021 37.792969 37.792969 C 37.456374 38.157613 37.096793 38.49469 36.726562 38.818359 A 3.9811694 3.9811694 0 0 1 34.3125 41.0625 L 26.132812 43.78125 A 3.9811694 3.9811694 0 0 0 26.130859 43.78125 L 17.951172 46.496094 A 3.9811694 3.9811694 0 0 1 16.011719 46.638672 C 18.520416 47.517891 21.219336 48 24.037109 48 C 37.423783 48 48 37.349564 48 23.962891 C 48 13.840964 41.813944 5.2387318 32.919922 1.7460938 z M 33.693359 10.736328 L 32.9375 14.28125 L 32.779297 15.025391 A 3.9811694 3.9811694 0 0 1 34.769531 14.279297 C 34.466402 13.030109 34.110779 11.842392 33.693359 10.736328 z M 13.1875 14.279297 C 13.067186 14.749732 12.95503 15.228522 12.849609 15.71875 L 13.716797 14.755859 L 13.1875 14.279297 z M 14.753906 32.414062 A 3.8384604 3.8384604 0 0 1 12.974609 33.191406 C 13.230812 34.401113 13.535084 35.545938 13.886719 36.628906 L 14.535156 33.474609 L 14.753906 32.414062 z "
       transform="matrix(7.450021,0,0,7.450021,174.271,173.45899)"
       id="path4234" /></g><path
     inkscape:connector-curvature="0"
     id="path4245"
     d="m 14.583733,10.36837 4.553908,4.10541 -10.4500631,11.591686 3.6963711,3.33233 10.450064,-11.591687 4.553029,4.104618 1.797271,-8.429707 1.796477,-8.4288264 -8.198132,2.65765 -8.198925,2.6585264 z"
     style="fill:#4c4c4c;fill-opacity:1;stroke:none;stroke-width:1.01499999;stroke-miterlimit:4;stroke-dasharray:none;stroke-opacity:1" /><path
     style="fill:#4c4c4c;fill-opacity:1;stroke:none;stroke-width:1.01499999;stroke-miterlimit:4;stroke-dasharray:none;stroke-opacity:1"
     d="m 33.056161,37.285743 -4.583217,-4.072663 10.366708,-11.666292 -3.720161,-3.305749 -10.36671,11.666292 -4.582332,-4.071878 -1.736804,8.442373 -1.736015,8.441487 8.178872,-2.716342 8.179659,-2.717228 z"
     id="path4249"
     inkscape:connector-curvature="0" /></svg>